# xmcd CD database file
#
# Track frame offsets:
#	150
#	22215
#	39245
#	50470
#	62845
#	74325
#	91315
#	106975
#	116100
#
# Disc length: 1707 seconds
#
# Revision: 2
# Processed by: cddbd v1.5.2PL0 Copyright (c) Steve Scherf et al.
# Submitted via: CDex 1.51
#
DISCID=7b06a909
DTITLE=Cagney And Lacee - Six Feet Of Chain
DYEAR=1997
DGENRE=Alternative
TTITLE0=Be Mine
TTITLE1=Lovin' You
TTITLE2=Six Feet Of Chain
TTITLE3=The Last Goodbye
TTITLE4=By The Way
TTITLE5=Greyhound Goin' Somewhere
TTITLE6=For The Sake Of The Children
TTITLE7=Memphis
TTITLE8=I'm Not Sayin
EXTD=YEAR: 1997
EXTT0=
EXTT1=
EXTT2=
EXTT3=
EXTT4=
EXTT5=
EXTT6=
EXTT7=
EXTT8=
PLAYORDER=
